<svg viewBox="-18 0 512 512" xmlns="http://www.w3.org/2000/svg"><path d="m476.171875 0v349.972656c0 49.449219-40.226563 89.675782-89.679687 89.675782-49.453126 0-89.6875-40.226563-89.6875-89.675782 0-49.453125 40.234374-89.679687 89.6875-89.679687 22.867187 0 43.773437 8.613281 59.628906 22.757812v-136.347656l-149.359375 36.621094-117.394531 28.777343v210.398438h-.007813c-.101563 49.375-40.289063 89.5-89.679687 89.5-49.453126 0-89.679688-40.226562-89.679688-89.679688 0-49.453124 40.226562-89.6875 89.679688-89.6875 22.878906 0 43.773437 8.613282 59.636718 22.765626v-272.539063l147.445313-37.382813zm0 0" fill="#67bd00" style="fill: rgb(255, 136, 0);"></path><path d="m476.171875 0v349.972656c0 49.449219-40.226563 89.675782-89.679687 89.675782-49.453126 0-89.6875-40.226563-89.6875-89.675782 0-49.453125 40.234374-89.679687 89.6875-89.679687 22.867187 0 43.773437 8.613281 59.628906 22.757812v-136.347656l-149.359375 36.621094v-137.847657zm0 0" fill="#009100" style="fill: rgb(255, 136, 0);"></path></svg>